<?xml version="1.0" encoding="utf-8"?>
<!-- Generator: Adobe Illustrator 28.4.1, SVG Export Plug-In . SVG Version: 6.00 Build 0)  -->
<svg version="1.0" id="katman_1" xmlns="http://www.w3.org/2000/svg" xmlns:xlink="http://www.w3.org/1999/xlink" x="0px" y="0px"
	 viewBox="0 0 600 450" style="enable-background:new 0 0 600 450;" xml:space="preserve">
<style type="text/css">
	.st0{fill:#0866FF;}
	.st1{fill:#FFFFFF;}
</style>
<circle class="st0" cx="300.11" cy="227.4" r="17.63"/>
<path class="st0" d="M341.3,196.24c-0.95-2.45-2.12-4.24-3.95-6.07c-1.87-1.87-3.62-3-6.07-3.95c-1.87-0.73-4.65-1.57-9.8-1.83
	c-5.56-0.26-7.24-0.29-21.36-0.29c-14.12,0-15.8,0.04-21.36,0.29c-5.16,0.22-7.94,1.1-9.8,1.83c-2.45,0.95-4.24,2.12-6.07,3.95
	c-1.87,1.87-3,3.62-3.95,6.07c-0.73,1.87-1.57,4.65-1.83,9.8c-0.26,5.56-0.29,7.24-0.29,21.36s0.04,15.8,0.29,21.36
	c0.22,5.16,1.1,7.94,1.83,9.8c0.95,2.45,2.12,4.24,3.95,6.07c1.87,1.87,3.62,3,6.07,3.95c1.87,0.73,4.65,1.57,9.8,1.83
	c5.56,0.26,7.24,0.29,21.36,0.29s15.8-0.04,21.36-0.29c5.16-0.22,7.94-1.1,9.8-1.83c2.45-0.95,4.24-2.12,6.07-3.95
	c1.87-1.87,3-3.62,3.95-6.07c0.73-1.87,1.57-4.65,1.83-9.8c0.26-5.56,0.29-7.24,0.29-21.36s-0.04-15.8-0.29-21.36
	C342.91,200.89,342.03,198.11,341.3,196.24z M300.11,254.58c-15,0-27.14-12.14-27.14-27.14c0-15,12.14-27.14,27.14-27.14
	c15,0,27.14,12.14,27.14,27.14C327.25,242.4,315.07,254.58,300.11,254.58z M328.31,205.53c-3.51,0-6.33-2.85-6.33-6.33
	c0-3.51,2.85-6.33,6.33-6.33c3.51,0,6.33,2.85,6.33,6.33C334.68,202.71,331.82,205.53,328.31,205.53z"/>
<path class="st0" d="M300,140.5c-46.95,0-85,38.05-85,85s38.05,85,85,85s85-38.05,85-85S346.95,140.5,300,140.5z M352.64,249.2
	c-0.26,5.63-1.13,9.47-2.45,12.84c-1.35,3.47-3.15,6.44-6.11,9.36c-2.93,2.93-5.89,4.76-9.36,6.11c-3.37,1.32-7.21,2.19-12.84,2.45
	s-7.43,0.33-21.8,0.33c-14.38,0-16.17-0.07-21.8-0.33c-5.63-0.26-9.47-1.13-12.84-2.45c-3.47-1.35-6.44-3.15-9.36-6.11
	c-2.93-2.93-4.76-5.89-6.11-9.36c-1.32-3.37-2.19-7.21-2.45-12.84s-0.33-7.43-0.33-21.8s0.07-16.17,0.33-21.8
	c0.26-5.63,1.13-9.47,2.45-12.84c1.35-3.47,3.15-6.44,6.11-9.36c2.93-2.93,5.89-4.76,9.36-6.11c3.37-1.32,7.21-2.19,12.84-2.45
	c5.63-0.26,7.43-0.33,21.8-0.33c14.38,0,16.17,0.07,21.8,0.33s9.47,1.13,12.84,2.45c3.47,1.35,6.44,3.15,9.36,6.11
	c2.93,2.93,4.76,5.89,6.11,9.36c1.32,3.37,2.19,7.21,2.45,12.84c0.26,5.63,0.33,7.43,0.33,21.8S352.89,243.57,352.64,249.2z"/>
<path id="Initiator" class="st0" d="M194.4,224.81c0-46.94-38.06-85-85-85s-85,38.06-85,85c0,39.86,27.44,73.31,64.47,82.5v-56.52
	H71.34v-25.98h17.53v-11.19c0-28.93,13.09-42.34,41.5-42.34c5.39,0,14.68,1.06,18.48,2.11v23.54c-2.01-0.21-5.49-0.32-9.82-0.32
	c-13.94,0-19.32,5.28-19.32,19.01v9.19h27.76l-4.77,25.98H119.7v58.4C161.78,304.1,194.4,268.26,194.4,224.81z"/>
<path id="F" class="st1" d="M142.69,250.78l4.77-25.98H119.7v-9.19c0-13.73,5.39-19.01,19.32-19.01c4.33,0,7.81,0.11,9.82,0.32
	v-23.54c-3.8-1.06-13.09-2.11-18.48-2.11c-28.4,0-41.5,13.41-41.5,42.34v11.19H71.34v25.98h17.53v56.52
	c6.58,1.63,13.45,2.5,20.53,2.5c3.49,0,6.92-0.21,10.3-0.62v-58.4H142.69z"/>
<circle class="st0" cx="490.6" cy="224.5" r="85"/>
<g id="layer1" transform="translate(52.390088,-25.058597)">
	<path id="path1009" class="st1" d="M385.85,200.31l40.63,54.32l-40.88,44.17h9.2l35.79-38.67l28.92,38.67h31.31l-42.91-57.38
		l38.06-41.11h-9.2l-32.97,35.61l-26.64-35.61H385.85z M399.38,207.09h14.39l63.52,84.94h-14.39L399.38,207.09z"/>
</g>
</svg>
